<svg xmlns="http://www.w3.org/2000/svg" viewBox="0 0 128 128">
  <defs>
    <linearGradient id="bg" x1="0" y1="0" x2="1" y2="1">
      <stop offset="0%" stop-color="#f18f5c" />
      <stop offset="100%" stop-color="#114b5f" />
    </linearGradient>
  </defs>
  <rect width="128" height="128" rx="28" fill="url(#bg)" />
  <path
    d="M26 78c13-10 24-14 35-12 8 2 16 8 24 8 6 0 12-3 17-8v18H26V78Z"
    fill="#fef3d4"
    opacity="0.95"
  />
  <path
    d="M26 78c11-15 20-23 29-26 11-4 24 2 33-5 7-6 10-12 14-21 0 0-3 20-8 28-8 12-18 18-32 18-11 0-22-4-36 6Z"
    fill="#ffd166"
  />
  <circle cx="92" cy="36" r="11" fill="#fff4b8" />
</svg>
